# xmcd
#
# Track frame offsets:
#	150
#	29072
#	50279
#	69299
#	92435
#	115132
#	133385
#	151526
#	174398
#	207831
#	245684
#	268713
#	308728
#
# Disc length: 4461 seconds
# Revision: 0
# Processed by: cddbd v1.5.2PL0 Copyright (c) Steve Scherf et al.
# Submitted via: dBpowerAMP V12.0
#
DISCID=ac116b0d
DTITLE=Buddy Guy - Breaking Out
DYEAR=1981
DGENRE=Blues
TTITLE0=Have You Ever Been Lonesome
TTITLE1=You Can Make It If You Try
TTITLE2=Break Out All Over You
TTITLE3=She Winked Her Eye
TTITLE4=I Didn't Know My Mother Had A Son Like Me
TTITLE5=Boogie Family Style
TTITLE6=You Called Me In My Dream
TTITLE7=Me and My Guitar
TTITLE8=Breaking Out On Top
TTITLE9=Skin and Bones/Money
TTITLE10=Love Is Like Quicksand
TTITLE11=Ice Around My Heart
TTITLE12=Texas Flood
EXTD=
EXTT0=
EXTT1=
EXTT2=
EXTT3=
EXTT4=
EXTT5=
EXTT6=
EXTT7=
EXTT8=
EXTT9=
EXTT10=
EXTT11=
EXTT12=
PLAYORDER=
